<?xml version="1.0" encoding="UTF-8" standalone="no"?> <svg xmlns="http://www.w3.org/2000/svg" viewBox="0 0 64 64"><g id="Layer_61" data-name="Layer 61"><path d="M19.85,17.41,15.49,16v16.3a24.43,24.43,0,0,0,8.9,18.88l3.69,3h7.84l3.69-3a24.43,24.43,0,0,0,8.9-18.88V16l-4.36,1.38A40,40,0,0,1,19.85,17.41Zm1.48,12.47a.75.75,0,0,1-1.5,0,4.27,4.27,0,0,1,8.53,0,.75.75,0,0,1-1.5,0,2.77,2.77,0,0,0-5.53,0ZM32,47c-5.18,0-9.24-2.71-9.24-6.18A4.74,4.74,0,0,1,24.1,37.6a.75.75,0,0,1,.62-.25.79.79,0,0,1,.57.35,8.16,8.16,0,0,0,13.42,0,.79.79,0,0,1,.57-.35.74.74,0,0,1,.62.25,4.74,4.74,0,0,1,1.34,3.22C41.24,44.29,37.18,47,32,47ZM43.42,30.63a.74.74,0,0,1-.75-.75,2.77,2.77,0,0,0-5.53,0,.75.75,0,0,1-1.5,0,4.27,4.27,0,0,1,8.53,0A.75.75,0,0,1,43.42,30.63Z"/><path d="M32,42.72a9.54,9.54,0,0,1-7.35-3.35,3,3,0,0,0-.39,1.45c0,2.54,3.54,4.68,7.74,4.68s7.74-2.14,7.74-4.68a3,3,0,0,0-.39-1.45A9.54,9.54,0,0,1,32,42.72Z"/><path d="M32,3.25A28.75,28.75,0,1,0,60.75,32,28.79,28.79,0,0,0,32,3.25ZM50,32.33a25.89,25.89,0,0,1-9.45,20l-3.89,3.21a.74.74,0,0,1-.48.17H27.81a.74.74,0,0,1-.48-.17l-3.89-3.21a25.89,25.89,0,0,1-9.45-20V15a.78.78,0,0,1,.31-.61.73.73,0,0,1,.67-.1L20.3,16a38.47,38.47,0,0,0,23.4,0L49,14.29a.73.73,0,0,1,.67.1A.78.78,0,0,1,50,15Z"/></g></svg>